#!OML:ASF Y:\EmotionMaleHayes\Project 1\Capture day 1\Session 1\Male1.ASF
:FULLY-SPECIFIED
:DEGREES
1945
root 8.70437 16.9625 0.709592 1096.99 71.1225 1098.82
lowerback 11.9935 3.40791 -10.5947
upperback 10.1165 4.22489 -2.48216
thorax 3.58391 1.85147 2.91973
lowerneck -22.0054 3.46338 4.71824
upperneck 22.5614 4.99563 -5.99595
head 11.2488 1.95066 -2.1709
rclavicle 2.20651e-014 -1.11319e-014
rhumerus -46.3227 37.3818 -112.731
rradius 120.097
rwrist -27.7124
rhand -30.2297 -28.781
rfingers 7.12502
rthumb -3.53929 -58.7314
lclavicle 2.20651e-014 -1.11319e-014
lhumerus -42.3944 -51.2929 115.935
lradius 107.305
lwrist 10.949
lhand -36.6113 -43.7379
lfingers 7.12502
lthumb -9.69961 -13.9812
rfemur -13.7065 17.1652 8.75175
rtibia 26.3074
rfoot -15.0725 6.36163
rtoes -16.8796
lfemur -1.58573 4.56119 -25.2791
ltibia 15.5457
lfoot -15.259 15.5672
ltoes -5.69313
1946
root 8.70799 16.964 0.723516 1097.12 71.2312 1098.9
lowerback 11.9025 3.31337 -10.613
upperback 10.1925 4.12077 -2.43348
thorax 3.7257 1.78903 2.9998
lowerneck -22.6778 3.55779 4.98229
upperneck 22.901 5.09968 -6.25421
head 11.5278 1.97137 -2.29297
rclavicle 9.14409e-015 -3.69739e-014
rhumerus -46.2558 37.6535 -112.612
rradius 120.035
rwrist -28.1013
rhand -30.2905 -28.9819
rfingers 7.12502
rthumb -3.59798 -58.9313
lclavicle 9.14409e-015 -3.69739e-014
lhumerus -42.0217 -51.099 115.634
lradius 107.302
lwrist 10.8749
lhand -36.4223 -43.3917
lfingers 7.12502
lthumb -9.51727 -13.6266
rfemur -13.6255 16.9645 8.75252
rtibia 26.1163
rfoot -14.8683 6.55815
rtoes -15.7161
lfemur -1.67186 4.52775 -25.2609
ltibia 15.631
lfoot -15.2222 15.5452
ltoes -5.93021
1947
root 8.70896 16.9645 0.741109 1097.16 71.339 1098.88
lowerback 11.8949 3.26658 -10.6279
upperback 10.1771 4.05422 -2.38022
thorax 3.71672 1.75273 3.07098
lowerneck -22.4857 3.37463 4.51385
upperneck 22.7207 4.88746 -5.84817
head 11.3833 1.89102 -2.09874
rclavicle -5.76476e-014 3.73715e-014
rhumerus -46.2342 37.7358 -112.564
rradius 119.931
rwrist -28.4746
rhand -30.5111 -27.619
rfingers 7.12502
rthumb -3.81099 -57.5647
lclavicle -5.76476e-014 3.73715e-014
lhumerus -41.7862 -51.0906 115.495
lradius 107.191
lwrist 11.0733
lhand -36.2669 -43.4187
lfingers 7.12502
lthumb -9.36738 -13.6469
rfemur -13.5534 16.9138 8.81668
rtibia 25.9439
rfoot -14.74 6.64248
rtoes -15.0706
lfemur -1.73847 4.52552 -25.1524
ltibia 15.689
lfoot -15.4626 15.4173
ltoes -5.42741
1948
root 8.70565 16.966 0.761651 1097.19 71.3997 1098.88
lowerback 12.0705 3.27611 -10.719
upperback 10.0212 4.01148 -2.36132
thorax 3.45115 1.73903 3.1307
lowerneck -22.1098 3.33575 4.47345
upperneck 22.6014 4.82017 -5.71972
head 11.2575 1.88218 -2.05687
rclavicle 3.1408e-014 -7.15625e-015
rhumerus -46.5419 37.6828 -112.828
rradius 119.895
rwrist -28.572
rhand -30.6016 -27.2564
rfingers 7.12502
rthumb -3.89846 -57.2005
lclavicle 3.1408e-014 -7.15625e-015
lhumerus -42.0369 -51.1518 115.651
lradius 107.098
lwrist 11.2405
lhand -36.3468 -43.4086
lfingers 7.12502
lthumb -9.4444 -13.6403
rfemur -13.4837 16.9844 8.89004
rtibia 25.8014
rfoot -14.6755 6.61365
rtoes -14.7132
lfemur -1.74939 4.50138 -25.0128
ltibia 15.6975
lfoot -15.6588 15.3172
ltoes -4.96641
1949
root 8.70288 16.9695 0.779358 1097.01 71.4989 1098.67
lowerback 12.2178 3.21371 -10.7446
upperback 9.88833 3.88678 -2.35382
thorax 3.24021 1.68556 3.15432
lowerneck -21.8195 3.48264 4.88607
upperneck 22.569 4.94782 -5.90506
head 11.2147 1.95881 -2.1747
rclavicle 5.76476e-015 -2.78299e-015
rhumerus -47.0921 37.8113 -113.27
rradius 120.019
rwrist -28.4799
rhand -30.793 -26.9614
rfingers 7.12502
rthumb -4.08321 -56.902
lclavicle 5.76476e-015 -2.78299e-015
lhumerus -42.237 -50.9217 115.642
lradius 107.125
lwrist 11.2421
lhand -36.3723 -43.2089
lfingers 7.12502
lthumb -9.46904 -13.4416
rfemur -13.4534 16.9184 9.04166
rtibia 25.745
rfoot -14.6667 6.60094
rtoes -14.5534
lfemur -1.74674 4.3882 -24.8123
ltibia 15.6913
lfoot -15.6113 15.3072
ltoes -5.44466
1950
root 8.70382 16.974 0.794442 1096.66 71.6359 1098.26
lowerback 12.1392 3.10271 -10.6021
upperback 9.91438 3.76521 -2.3284
thorax 3.32871 1.62596 3.12154
lowerneck -21.6953 3.5627 5.24701
upperneck 22.5277 5.00957 -6.15651
head 11.1973 1.98931 -2.31798
rclavicle 6.95746e-015 -4.77083e-015
rhumerus -47.26 38.0261 -113.393
rradius 120.145
rwrist -28.4481
rhand -30.8915 -27.0592
rfingers 7.12502
rthumb -4.17837 -56.998
lclavicle 6.95746e-015 -4.77083e-015
lhumerus -42.0257 -50.6109 115.342
lradius 107.18
lwrist 11.1256
lhand -35.8602 -42.9636
lfingers 7.12502
lthumb -8.97493 -13.1745
rfemur -13.4701 16.75 9.26174
rtibia 25.742
rfoot -14.6469 6.71432
rtoes -14.2045
lfemur -1.75911 4.3325 -24.564
ltibia 15.6991
lfoot -15.5337 15.2444
ltoes -5.83619
1951
root 8.70946 16.9791 0.809555 1097.16 71.6854 1098.75
lowerback 11.972 3.02753 -10.6583
upperback 10.0282 3.70438 -2.38328
thorax 3.55486 1.58396 3.11299
lowerneck -21.7965 3.49935 5.24943
upperneck 22.5334 4.90691 -6.13472
head 11.2111 1.94332 -2.32666
rclavicle 3.12092e-014 -1.59028e-014
rhumerus -46.9714 38.2879 -113.25
rradius 120.047
rwrist -28.6656
rhand -30.9786 -27.6615
rfingers 7.12502
rthumb -4.26248 -57.5986
lclavicle 3.12092e-014 -1.59028e-014
lhumerus -41.7434 -50.4784 115.025
lradius 107.231
lwrist 11.1144
lhand -34.9679 -42.72
lfingers 7.12502
lthumb -8.11378 -12.8958
rfemur -13.4135 16.6028 9.12825
rtibia 25.6629
rfoot -14.5921 6.86862
rtoes -13.0711
lfemur -1.72178 4.37401 -24.6963
ltibia 15.6503
lfoot -15.4861 15.1265
ltoes -6.27124
1952
root 8.71679 16.984 0.827231 1097.76 71.7091 1099.38
lowerback 11.8956 3.07186 -10.6489
upperback 10.1467 3.79639 -2.44051
thorax 3.71964 1.62597 3.04522
lowerneck -22.1929 3.356 5.03541
upperneck 22.6534 4.72672 -5.99547
head 11.3097 1.85189 -2.26821
rclavicle 3.91606e-014 1.98785e-014
rhumerus -46.672 38.2513 -112.955
rradius 119.994
rwrist -28.7235
rhand -31.0185 -27.8643
rfingers 7.12502
rthumb -4.30101 -57.8006
lclavicle 3.91606e-014 1.98785e-014
lhumerus -41.5727 -50.7594 114.932
lradius 107.288
lwrist 11.621
lhand -34.6506 -42.7164
lfingers 7.12502
lthumb -7.80753 -12.8805
rfemur -13.2615 16.5948 8.97468
rtibia 25.5377
rfoot -14.5708 6.85555
rtoes -12.1662
lfemur -1.63768 4.37827 -24.8721
ltibia 15.5777
lfoot -15.375 15.0559
ltoes -6.78814
1953
root 8.72318 16.9867 0.846017 1097.55 71.9071 1099.15
lowerback 11.9314 3.15381 -10.289
upperback 10.2022 3.93343 -2.35214
thorax 3.74742 1.70959 2.92676
lowerneck -22.255 3.01202 4.36729
upperneck 22.5789 4.3554 -5.59133
head 11.2423 1.67637 -2.06721
rclavicle 9.34288e-015 -2.18663e-014
rhumerus -46.5531 37.9472 -112.535
rradius 120.06
rwrist -28.464
rhand -30.9976 -27.5667
rfingers 7.12502
rthumb -4.28079 -57.5034
lclavicle 9.34288e-015 -2.18663e-014
lhumerus -41.5311 -51.3091 115.218
lradius 107.193
lwrist 12.2464
lhand -34.8377 -42.8121
lfingers 7.12502
lthumb -7.98813 -12.983
rfemur -13.0744 16.5555 9.20139
rtibia 25.3618
rfoot -14.5256 6.79251
rtoes -11.4959
lfemur -1.58988 4.29968 -24.67
ltibia 15.5717
lfoot -15.2897 14.9322
ltoes -6.77523
1954
root 8.72473 16.989 0.86732 1097.52 72.1403 1099.07
lowerback 11.9913 3.11081 -10.2242
upperback 10.1323 3.86029 -2.26545
thorax 3.64244 1.67759 2.98488
lowerneck -21.9157 2.85261 4.01201
upperneck 22.4167 4.18051 -5.30765
head 11.0914 1.60972 -1.93202
rclavicle 6.16232e-015 -9.93923e-015
rhumerus -46.7437 38.0653 -112.547
rradius 120.038
rwrist -28.3173
rhand -31.2193 -27.4966
rfingers 7.12502
rthumb -4.49487 -57.4289
lclavicle 6.16232e-015 -9.93923e-015
lhumerus -41.663 -51.4511 115.486
lradius 107.037
lwrist 12.1938
lhand -34.6394 -42.3775
lfingers 7.12502
lthumb -7.79675 -12.5413
rfemur -12.9622 16.466 9.36683
rtibia 25.1541
rfoot -14.4307 6.74341
rtoes -10.26
lfemur -1.65231 4.23255 -24.4765
ltibia 15.6318
lfoot -15.2811 14.7889
ltoes -6.98748
1955
root 8.72244 16.9925 0.890865 1097.46 72.2298 1098.89
lowerback 11.9155 2.97505 -10.3712
upperback 10.0626 3.66808 -2.2665
thorax 3.62668 1.57321 3.08638
lowerneck -21.8758 3.14134 4.53933
upperneck 22.4073 4.47978 -5.58139
head 11.1172 1.75655 -2.07225
rclavicle 3.57812e-015 4.37326e-014
rhumerus -47.0458 38.5007 -112.973
rradius 120.04
rwrist -28.3783
rhand -31.3124 -28.3468
rfingers 7.12502
rthumb -4.58478 -58.2772
lclavicle 3.57812e-015 4.37326e-014
lhumerus -41.7742 -51.1615 115.311
lradius 107.035
lwrist 11.6481
lhand -36.2926 -42.68
lfingers 7.12502
lthumb -9.3921 -12.9093
rfemur -12.9908 16.5591 9.51318
rtibia 25.044
rfoot -14.372 6.63169
rtoes -9.89815
lfemur -1.82458 4.22134 -24.2773
ltibia 15.7429
lfoot -15.2961 14.8274
ltoes -7.72341
1956
root 8.72193 16.9947 0.912197 1096.76 72.3338 1098.08
lowerback 11.7251 2.85791 -10.1719
upperback 10.1329 3.56168 -2.25027
thorax 3.82358 1.51933 3.01634
lowerneck -22.0204 3.11898 4.69153
upperneck 22.4329 4.39614 -5.60986
head 11.1535 1.72477 -2.12133
rclavicle -1.0138e-014 1.03368e-014
rhumerus -47.0233 38.8178 -113.134
rradius 120.062
rwrist -28.5142
rhand -31.2739 -29.1686
rfingers 7.12502
rthumb -4.54764 -59.0998
lclavicle -1.0138e-014 1.03368e-014
lhumerus -41.5612 -51.0095 114.896
lradius 107.101
lwrist 11.573
lhand -36.7282 -42.5325
lfingers 7.12502
lthumb -9.81246 -12.7811
rfemur -13.0119 16.7044 9.9082
rtibia 25.0556
rfoot -14.4514 6.48407
rtoes -10.5128
lfemur -1.94652 4.10447 -23.8834
ltibia 15.8327
lfoot -15.3292 14.9693
ltoes -8.2519
1957
root 8.72099 16.9952 0.934988 1095.68 72.5402 1096.93
lowerback 11.9822 2.87863 -9.83016
upperback 9.99436 3.55597 -2.09396
thorax 3.53002 1.54155 2.97732
lowerneck -22.2181 2.93006 4.52961
upperneck 22.7265 4.15837 -5.46483
head 11.2791 1.61804 -2.08182
rclavicle -3.97569e-015 -8.34896e-015
rhumerus -47.2898 38.8232 -113.197
rradius 120.065
rwrist -28.4976
rhand -31.3711 -28.9156
rfingers 7.12502
rthumb -4.64146 -58.8447
lclavicle -3.97569e-015 -8.34896e-015
lhumerus -41.861 -50.9774 115.222
lradius 107.131
lwrist 11.8844
lhand -35.7722 -42.4031
lfingers 7.12502
lthumb -8.88997 -12.6104
rfemur -12.9587 16.8483 10.4949
rtibia 25.1834
rfoot -14.6691 6.21327
rtoes -11.3333
lfemur -1.9641 3.89681 -23.3187
ltibia 15.9132
lfoot -15.4805 15.007
ltoes -8.03667
1958
root 8.72207 16.9964 0.958589 1094.93 72.7428 1096.16
lowerback 11.8465 2.79917 -9.59249
upperback 10.1049 3.49827 -2.00394
thorax 3.73136 1.51199 2.9568
lowerneck -22.313 2.89684 4.57619
upperneck 22.7279 4.10447 -5.51692
head 11.2968 1.58914 -2.11737
rclavicle 4.77083e-015 1.27222e-014
rhumerus -47.1662 39.1022 -113.111
rradius 120.024
rwrist -28.2944
rhand -31.3569 -28.3568
rfingers 7.12502
rthumb -4.62773 -58.2862
lclavicle 4.77083e-015 1.27222e-014
lhumerus -41.5396 -50.9642 114.947
lradius 107.137
lwrist 12.0083
lhand -36.3551 -42.4989
lfingers 7.12502
lthumb -9.45247 -12.7309
rfemur -12.8368 16.9198 10.9501
rtibia 25.1502
rfoot -14.739 6.00827
rtoes -11.521
lfemur -1.92806 3.76053 -22.8862
ltibia 15.9379
lfoot -15.5864 14.9809
ltoes -8.00375
